<?xml version="1.0" standalone="no"?>
<!DOCTYPE svg PUBLIC "-//W3C//DTD SVG 20010904//EN"
 "http://www.w3.org/TR/2001/REC-SVG-20010904/DTD/svg10.dtd">
<svg version="1.0" xmlns="http://www.w3.org/2000/svg"
 width="500.000000pt" height="500.000000pt" viewBox="0 0 500.000000 500.000000"
 preserveAspectRatio="xMidYMid meet">

<g transform="translate(0.000000,500.000000) scale(0.100000,-0.100000)"
fill="#000000" stroke="none">
<path d="M938 3186 c-113 -66 -267 -156 -342 -199 l-136 -78 2 -410 3 -410
189 -110 c104 -60 190 -109 191 -109 2 0 71 -40 155 -90 84 -50 153 -90 155
-90 1 0 76 43 166 95 90 52 248 143 351 203 l188 107 0 405 0 405 -38 21 c-20
11 -111 63 -202 116 -91 53 -232 134 -314 182 -82 47 -151 85 -155 85 -3 -1
-99 -56 -213 -123z m356 -22 c72 -42 176 -102 231 -134 55 -32 138 -80 185
-107 l85 -49 0 -374 0 -375 -145 -83 c-80 -46 -165 -95 -190 -109 -25 -14
-102 -58 -171 -99 -69 -41 -129 -74 -132 -74 -4 0 -28 13 -54 28 -27 16 -113
66 -193 112 -80 46 -202 117 -272 158 l-128 74 0 368 0 368 128 74 c70 41 192
112 272 158 80 46 165 96 190 111 25 15 49 28 54 28 5 1 68 -33 140 -75z"/>
<path d="M919 2734 l-63 -64 84 -85 84 -85 -61 -62 c-59 -61 -62 -66 -76 -140
-7 -43 -10 -78 -6 -78 5 0 41 6 81 12 69 12 76 16 132 70 33 32 62 58 65 58 4
0 42 -36 86 -80 l80 -80 67 67 67 67 -83 83 -83 82 68 71 c64 66 69 74 69 114
0 37 -5 48 -32 71 -49 42 -87 31 -168 -50 -36 -36 -68 -65 -72 -65 -4 0 -37
32 -75 71 -37 38 -75 74 -84 79 -12 7 -31 -6 -80 -56z m100 -62 c-11 -17 -11
-24 -1 -34 9 -9 16 -8 30 5 17 16 20 15 47 -13 l29 -30 -35 -35 -34 -35 -70
70 -69 70 34 35 34 35 24 -23 c21 -21 22 -27 11 -45z m349 52 c25 -18 29 -56
7 -74 -13 -11 -21 -8 -51 21 l-35 34 22 17 c26 22 29 22 57 2z m-73 -87 l34
-33 -142 -142 -142 -142 -34 36 -35 35 139 139 c77 77 141 140 143 140 2 0 18
-15 37 -33z m-5 -202 c22 -24 22 -26 6 -44 -17 -18 -17 -20 1 -29 13 -8 22 -7
34 4 14 12 18 11 39 -11 l24 -26 -35 -34 -34 -35 -69 69 -68 68 29 30 c35 38
44 39 73 8z m-313 -107 c32 -30 29 -45 -9 -51 -18 -2 -35 -3 -37 -1 -6 5 9 74
16 74 4 0 17 -10 30 -22z"/>
<path d="M3146 2723 c-3 -3 -6 -91 -6 -195 0 -147 3 -189 13 -186 6 3 13 23
15 45 2 25 11 48 23 59 19 17 21 16 84 -46 51 -51 65 -60 71 -47 4 11 -11 36
-48 78 l-55 61 56 53 c46 44 53 55 39 60 -13 5 -37 -10 -85 -54 -37 -34 -71
-61 -75 -61 -5 0 -8 51 -8 114 0 105 -6 136 -24 119z"/>
<path d="M2120 2691 c-19 -11 -46 -34 -60 -53 -22 -29 -25 -43 -25 -114 0 -72
3 -84 27 -115 14 -19 45 -44 68 -54 l42 -19 -33 -11 c-49 -17 -45 -41 6 -37
25 2 58 -5 85 -17 25 -11 60 -21 78 -21 44 0 102 25 102 44 0 20 -29 20 -54 1
-27 -20 -48 -19 -108 7 l-50 21 58 27 c88 40 109 75 109 175 0 70 -3 84 -25
113 -50 68 -147 91 -220 53z m168 -55 c37 -34 37 -35 37 -111 0 -76 0 -77 -37
-111 -33 -29 -45 -34 -88 -34 -43 0 -55 5 -88 34 -37 34 -37 35 -37 111 0 76
0 77 37 111 33 29 45 34 88 34 43 0 55 -5 88 -34z"/>
<path d="M3457 2690 c-38 -31 -50 -65 -37 -106 13 -37 36 -55 99 -73 88 -26
115 -61 79 -106 -26 -33 -95 -35 -145 -4 -24 15 -38 18 -45 11 -15 -15 -3 -29
42 -52 68 -35 163 -20 190 29 15 28 12 83 -5 108 -9 12 -43 31 -82 43 -101 33
-122 59 -87 108 12 17 25 22 62 22 27 0 57 -7 70 -16 13 -9 30 -13 39 -9 14 5
13 10 -10 32 -38 38 -129 45 -170 13z"/>
<path d="M2743 2684 c-7 -18 11 -39 26 -30 17 11 13 46 -4 46 -9 0 -18 -7 -22
-16z"/>
<path d="M2945 2613 c-107 -30 -131 -180 -39 -252 48 -38 164 -20 164 25 0 18
-2 18 -44 -3 -69 -33 -141 17 -141 98 0 34 6 46 34 71 34 31 65 34 129 13 25
-8 32 15 9 33 -16 13 -85 23 -112 15z"/>
<path d="M2447 2603 c-4 -3 -7 -42 -7 -85 0 -127 34 -178 116 -178 31 0 51 7
73 26 l31 26 0 109 c0 87 -3 109 -14 109 -11 0 -15 -22 -18 -100 -3 -114 -13
-131 -73 -133 -61 -2 -75 25 -75 139 0 72 -3 94 -13 94 -8 0 -17 -3 -20 -7z"/>
<path d="M2742 2478 c3 -110 6 -133 18 -133 12 0 15 23 18 133 2 127 2 132
-18 132 -20 0 -20 -5 -18 -132z"/>
<path d="M3720 2515 c0 -131 26 -174 103 -175 91 0 121 47 115 185 -2 63 -6
80 -18 80 -12 0 -16 -20 -20 -97 -6 -109 -17 -131 -69 -131 -57 0 -70 24 -73
132 -3 82 -6 96 -20 99 -16 3 -18 -7 -18 -93z"/>
<path d="M4022 2478 c3 -110 6 -133 18 -133 12 0 16 19 18 97 3 91 4 98 29
118 30 23 61 26 89 6 16 -12 20 -29 22 -113 4 -92 12 -126 29 -109 4 4 8 48
10 99 2 85 4 94 28 115 32 27 69 28 95 2 17 -17 20 -33 20 -114 0 -92 11 -126
31 -95 12 19 11 156 -1 201 -13 44 -34 58 -87 58 -27 0 -46 -7 -64 -24 l-27
-25 -21 25 c-27 31 -87 33 -124 4 -25 -20 -25 -20 -30 0 -3 11 -12 20 -21 20
-15 0 -16 -16 -14 -132z"/>
</g>
</svg>
